<svg viewBox="0 0 300 200" xmlns="http://www.w3.org/2000/svg">
  <defs>
    <linearGradient id="laptopGradient" x1="0%" y1="0%" x2="0%" y2="100%">
      <stop offset="0%" style="stop-color:#e8eaf0;stop-opacity:1" />
      <stop offset="100%" style="stop-color:#c5c9d6;stop-opacity:1" />
    </linearGradient>
    
    <linearGradient id="screenGradient" x1="0%" y1="0%" x2="0%" y2="100%">
      <stop offset="0%" style="stop-color:#1f1f1f;stop-opacity:1" />
      <stop offset="100%" style="stop-color:#2a2a2a;stop-opacity:1" />
    </linearGradient>
    
    <linearGradient id="gmailRed" x1="0%" y1="0%" x2="100%" y2="0%">
      <stop offset="0%" style="stop-color:#ea4335;stop-opacity:1" />
      <stop offset="100%" style="stop-color:#fbbc04;stop-opacity:1" />
    </linearGradient>
    
    <filter id="shadow">
      <feDropShadow dx="2" dy="4" stdDeviation="3" flood-opacity="0.3"/>
    </filter>
  </defs>
  
  <!-- Laptop base -->
  <ellipse cx="150" cy="185" rx="90" ry="8" fill="#b0b0b0" opacity="0.3"/>
  <rect x="60" y="160" width="180" height="20" rx="10" fill="url(#laptopGradient)" filter="url(#shadow)"/>
  
  <!-- Laptop screen -->
  <rect x="70" y="50" width="160" height="115" rx="8" fill="url(#laptopGradient)" filter="url(#shadow)"/>
  <rect x="75" y="55" width="150" height="100" rx="4" fill="url(#screenGradient)"/>
  
  <!-- Gmail interface -->
  <!-- Gmail header bar -->
  <rect x="80" y="60" width="140" height="12" fill="#f1f3f4"/>
  <rect x="85" y="63" width="8" height="6" fill="url(#gmailRed)"/>
  <text x="96" y="69" font-family="Arial, sans-serif" font-size="6" fill="#5f6368">Gmail</text>
  
  <!-- Search bar -->
  <rect x="85" y="75" width="130" height="8" rx="4" fill="#f1f3f4" stroke="#dadce0" stroke-width="0.5"/>
  <circle cx="90" cy="79" r="2" fill="#9aa0a6"/>
  <text x="95" y="81" font-family="Arial, sans-serif" font-size="4" fill="#9aa0a6">Search mail</text>
  
  <!-- Email list -->
  <g>
    <!-- Email 1 -->
    <rect x="85" y="88" width="130" height="12" fill="#ffffff" stroke="#f0f0f0" stroke-width="0.5"/>
    <circle cx="90" cy="94" r="2" fill="#34a853"/>
    <text x="95" y="96" font-family="Arial, sans-serif" font-size="4" fill="#202124">John Smith - Meeting Follow-up</text>
    
    <!-- Email 2 -->
    <rect x="85" y="102" width="130" height="12" fill="#ffffff" stroke="#f0f0f0" stroke-width="0.5"/>
    <circle cx="90" cy="108" r="2" fill="#fbbc04"/>
    <text x="95" y="110" font-family="Arial, sans-serif" font-size="4" fill="#202124">Sarah Wilson - Project Update</text>
    
    <!-- Email 3 -->
    <rect x="85" y="116" width="130" height="12" fill="#ffffff" stroke="#f0f0f0" stroke-width="0.5"/>
    <circle cx="90" cy="122" r="2" fill="#ea4335"/>
    <text x="95" y="124" font-family="Arial, sans-serif" font-size="4" fill="#202124">Mike Johnson - Cold Outreach</text>
    
    <!-- Email 4 -->
    <rect x="85" y="130" width="130" height="12" fill="#ffffff" stroke="#f0f0f0" stroke-width="0.5"/>
    <circle cx="90" cy="136" r="2" fill="#4285f4"/>
    <text x="95" y="138" font-family="Arial, sans-serif" font-size="4" fill="#202124">Lisa Chen - Partnership Inquiry</text>
  </g>
  
  <!-- Gmail compose button -->
  <circle cx="95" cy="150" r="8" fill="#c5221f"/>
  <text x="95" y="154" text-anchor="middle" font-family="Arial, sans-serif" font-size="8" fill="white">+</text>
  
  <!-- Paper plane animation -->
  <g>
    <animateTransform 
      attributeName="transform" 
      type="translate" 
      values="10,30; 70,50; 130,70; 150,80" 
      dur="3s" 
      repeatCount="indefinite"/>
    <animateTransform 
      attributeName="transform" 
      type="rotate" 
      values="0; 15; 30; 45" 
      dur="3s" 
      repeatCount="indefinite"
      additive="sum"/>
    
    <!-- Simple 2D paper plane side view - much bigger -->
    <!-- Main triangular body -->
    <path d="M0,0 L-30,-6 L-30,6 Z" fill="#ffd700" stroke="#f4c430" stroke-width="0.5"/>
    <!-- Top wing -->
    <path d="M-6,-2 L-24,-9 L-30,-6 L-15,-2 Z" fill="#ffed4a" stroke="#f4c430" stroke-width="0.3"/>
    <!-- Bottom wing -->
    <path d="M-6,2 L-24,9 L-30,6 L-15,2 Z" fill="#ffed4a" stroke="#f4c430" stroke-width="0.3"/>
    <!-- Center fold line -->
    <line x1="0" y1="0" x2="-30" y2="0" stroke="#f4c430" stroke-width="0.5"/>
    
    <!-- Trail effect -->
    <circle cx="-15" cy="0" r="1" fill="#4285f4" opacity="0.6">
      <animate attributeName="opacity" values="0;0.6;0" dur="0.5s" repeatCount="indefinite"/>
    </circle>
    <circle cx="-20" cy="0" r="0.8" fill="#4285f4" opacity="0.4">
      <animate attributeName="opacity" values="0;0.4;0" dur="0.7s" repeatCount="indefinite"/>
    </circle>
    <circle cx="-25" cy="0" r="0.6" fill="#4285f4" opacity="0.2">
      <animate attributeName="opacity" values="0;0.2;0" dur="0.9s" repeatCount="indefinite"/>
    </circle>
  </g>
  
  <!-- Laptop screen reflection -->
  <rect x="75" y="55" width="150" height="50" rx="4" fill="url(#screenGradient)" opacity="0.1"/>
  
  <!-- Keyboard hint -->
  <rect x="80" y="168" width="140" height="8" rx="2" fill="#e0e0e0"/>
  <g fill="#ccc">
    <rect x="85" y="170" width="4" height="4" rx="1"/>
    <rect x="91" y="170" width="4" height="4" rx="1"/>
    <rect x="97" y="170" width="4" height="4" rx="1"/>
    <rect x="103" y="170" width="20" height="4" rx="1"/>
    <rect x="125" y="170" width="4" height="4" rx="1"/>
    <rect x="131" y="170" width="4" height="4" rx="1"/>
    <rect x="137" y="170" width="4" height="4" rx="1"/>
  </g>
</svg>
